<svg width="171" height="216" viewBox="0 0 171 216" fill="none" xmlns="http://www.w3.org/2000/svg">
<path d="M35.5689 212.54C35.5494 212.521 35.5284 212.505 35.5088 212.485L3.5088 180.485C1.26095 178.234 -0.00111442 175.183 7.38385e-07 172.002C0.00111589 168.821 1.26533 165.77 3.51475 163.521C5.76418 161.271 8.81473 160.007 11.9959 160.006C15.1771 160.005 18.2285 161.267 20.4795 163.515L31.9942 175.029V12C31.9942 8.8174 33.2585 5.76516 35.5089 3.51472C37.7594 1.26429 40.8116 0 43.9942 0C47.1768 0 50.229 1.26429 52.4795 3.51472C54.7299 5.76516 55.9942 8.8174 55.9942 12V175.029L67.5088 163.515C69.7598 161.267 72.8113 160.005 75.9925 160.006C79.1736 160.007 82.2242 161.271 84.4736 163.521C86.723 165.77 87.9872 168.821 87.9883 172.002C87.9895 175.183 86.7274 178.234 84.4795 180.485L52.4795 212.485C52.46 212.505 52.439 212.521 52.4195 212.54C52.1583 212.798 51.8863 213.046 51.6021 213.279C51.4546 213.4 51.2994 213.506 51.148 213.618C50.9859 213.739 50.8282 213.864 50.6597 213.977C50.4815 214.096 50.2969 214.2 50.1133 214.309C49.9605 214.4 49.8111 214.497 49.6533 214.581C49.4683 214.68 49.2783 214.764 49.0889 214.853C48.9229 214.931 48.7593 215.014 48.5889 215.085C48.4048 215.161 48.2173 215.223 48.0308 215.289C47.8477 215.355 47.6675 215.425 47.481 215.482C47.2925 215.539 47.1006 215.581 46.9102 215.628C46.7212 215.675 46.5347 215.729 46.3418 215.767C46.1211 215.811 45.898 215.838 45.6753 215.869C45.5103 215.892 45.3477 215.924 45.1807 215.94C44.3916 216.018 43.5967 216.018 42.8077 215.94C42.6407 215.924 42.4781 215.892 42.313 215.869C42.0904 215.838 41.8672 215.811 41.6465 215.767C41.4537 215.729 41.2671 215.675 41.0782 215.628C40.8877 215.581 40.6959 215.539 40.5074 215.482C40.3209 215.425 40.1407 215.355 39.9576 215.289C39.771 215.223 39.5836 215.161 39.3995 215.085C39.2291 215.014 39.0655 214.931 38.8995 214.853C38.71 214.764 38.5201 214.68 38.335 214.581C38.1773 214.497 38.0279 214.4 37.875 214.309C37.6914 214.2 37.5068 214.096 37.3286 213.977C37.1602 213.864 37.0024 213.739 36.8403 213.618C36.689 213.506 36.5337 213.4 36.3862 213.279C36.1021 213.046 35.8301 212.798 35.5689 212.54ZM132.148 2.38184C131.986 2.26123 131.828 2.13574 131.66 2.02295C131.481 1.90381 131.297 1.79981 131.113 1.69096C130.96 1.60014 130.811 1.50345 130.653 1.41895C130.468 1.31982 130.277 1.23535 130.087 1.14648C129.921 1.06836 129.759 0.985845 129.589 0.915535C129.405 0.838875 129.216 0.776865 129.029 0.710455C128.847 0.645025 128.667 0.575205 128.481 0.518555C128.292 0.461435 128.1 0.419435 127.91 0.372075C127.721 0.324715 127.534 0.271485 127.342 0.232915C127.121 0.188965 126.898 0.162605 126.675 0.131355C126.51 0.107915 126.347 0.076175 126.18 0.060065C125.391 -0.018063 124.597 -0.018063 123.807 0.060065C123.64 0.076175 123.478 0.107915 123.313 0.131355C123.09 0.162605 122.867 0.188965 122.646 0.232915C122.453 0.271485 122.267 0.324715 122.078 0.372075C121.888 0.419435 121.696 0.461435 121.507 0.518555C121.321 0.575205 121.141 0.645025 120.959 0.710455C120.772 0.776865 120.583 0.838875 120.399 0.915535C120.229 0.985845 120.067 1.06837 119.901 1.14654C119.711 1.23541 119.52 1.31988 119.335 1.41901C119.177 1.50348 119.028 1.60015 118.875 1.691C118.691 1.79988 118.507 1.9039 118.328 2.02301C118.16 2.1358 118.002 2.26129 117.84 2.3819C117.689 2.49469 117.534 2.60015 117.386 2.72124C117.102 2.95464 116.83 3.20224 116.569 3.46051C116.549 3.47951 116.528 3.49518 116.509 3.51471L84.5088 35.5147C82.261 37.7657 80.9989 40.8172 81 43.9983C81.0011 47.1795 82.2653 50.2301 84.5148 52.4795C86.7642 54.7289 89.8147 55.9931 92.9959 55.9942C96.1771 55.9954 99.2285 54.7333 101.479 52.4854L112.994 40.9707V122.485V204C112.994 207.183 114.258 210.235 116.509 212.485C118.759 214.736 121.811 216 124.994 216C128.177 216 131.229 214.736 133.479 212.485C135.73 210.235 136.994 207.183 136.994 204V40.9707L148.509 52.4854C150.76 54.7332 153.811 55.9953 156.992 55.9942C160.173 55.9931 163.224 54.7289 165.473 52.4794C167.723 50.23 170.987 47.1795 170.988 43.9983C170.989 40.8171 167.727 37.7657 165.479 35.5147L133.479 3.51466C133.46 3.49513 133.439 3.47949 133.419 3.46045C133.158 3.20215 132.886 2.95459 132.602 2.72119C132.454 2.6001 132.299 2.49464 132.148 2.38184Z" fill="#CBCBCB"/>
</svg>
